<?xml version="1.0" standalone="no"?>
<!DOCTYPE svg PUBLIC "-//W3C//DTD SVG 20010904//EN"
 "http://www.w3.org/TR/2001/REC-SVG-20010904/DTD/svg10.dtd">
<svg version="1.0" xmlns="http://www.w3.org/2000/svg"
 width="192.000000pt" height="192.000000pt" viewBox="0 0 192.000000 192.000000"
 preserveAspectRatio="xMidYMid meet">

<g transform="translate(0.000000,192.000000) scale(0.100000,-0.100000)"
fill="#000000" stroke="none">
<path d="M395 1771 c-92 -23 -164 -81 -205 -164 l-30 -62 2 -585 3 -585 23
-47 c30 -60 89 -119 150 -149 l47 -24 575 0 575 0 48 24 c67 33 133 103 157
168 20 53 20 72 18 636 -3 539 -4 585 -21 618 -31 62 -85 116 -145 146 l-57
28 -555 2 c-305 1 -568 -2 -585 -6z m432 -360 c24 -14 55 -42 69 -62 50 -73
42 -222 -16 -274 -19 -18 -19 -18 9 -51 40 -45 54 -94 49 -178 -4 -88 -35
-143 -101 -178 -39 -22 -55 -23 -269 -26 l-228 -3 0 401 0 402 223 -4 c214 -3
224 -4 264 -27z m753 -35 l0 -65 -191 -3 -191 -3 -24 -28 c-24 -28 -24 -31
-24 -237 0 -114 3 -216 6 -225 13 -33 59 -45 179 -45 l115 0 0 100 0 100 -65
0 -65 0 0 60 0 60 130 0 130 0 0 -225 0 -225 -203 0 c-199 0 -204 1 -255 26
-39 19 -59 38 -80 72 l-27 47 -3 231 c-4 251 2 293 44 344 58 68 100 78 337
79 l187 1 0 -64z m0 -851 l0 -45 -620 0 -620 0 0 45 0 45 620 0 620 0 0 -45z"/>
<path d="M480 1211 l0 -101 120 0 c125 0 171 11 184 45 13 35 6 103 -13 126
-18 23 -26 24 -155 27 l-136 4 0 -101z"/>
<path d="M480 875 l0 -105 135 0 c131 0 137 1 160 25 21 20 25 34 25 80 0 46
-4 60 -25 80 -23 24 -29 25 -160 25 l-135 0 0 -105z"/>
</g>
</svg>
